<mxfile host="65bd71144e">
    <diagram id="-JTuTWUIMOA9GrEq_ndQ" name="PÃ¡gina-1">
        <mxGraphModel dx="833" dy="556" grid="1" gridSize="10" guides="1" tooltips="1" connect="1" arrows="1" fold="1" page="1" pageScale="1" pageWidth="827" pageHeight="1169" math="0" shadow="0">
            <root>
                <mxCell id="0"/>
                <mxCell id="1" parent="0"/>
                <mxCell id="2" value="" style="whiteSpace=wrap;html=1;aspect=fixed;" parent="1" vertex="1">
                    <mxGeometry x="80" y="40" width="240" height="240" as="geometry"/>
                </mxCell>
                <mxCell id="3" value="" style="rounded=0;whiteSpace=wrap;html=1;" parent="1" vertex="1">
                    <mxGeometry x="80" y="90" width="240" height="100" as="geometry"/>
                </mxCell>
                <mxCell id="4" value="" style="whiteSpace=wrap;html=1;aspect=fixed;" parent="1" vertex="1">
                    <mxGeometry x="410" y="50" width="240" height="240" as="geometry"/>
                </mxCell>
                <mxCell id="5" value="" style="rounded=0;whiteSpace=wrap;html=1;" parent="1" vertex="1">
                    <mxGeometry x="410" y="90" width="240" height="50" as="geometry"/>
                </mxCell>
                <mxCell id="8" value="Equipe" style="text;strokeColor=none;fillColor=none;html=1;fontSize=24;fontStyle=1;verticalAlign=middle;align=center;" parent="1" vertex="1">
                    <mxGeometry x="150" y="50" width="100" height="40" as="geometry"/>
                </mxCell>
                <mxCell id="9" value="EquipeSrevice" style="text;strokeColor=none;fillColor=none;html=1;fontSize=24;fontStyle=1;verticalAlign=middle;align=center;" parent="1" vertex="1">
                    <mxGeometry x="430" y="35" width="180" height="70" as="geometry"/>
                </mxCell>
                <mxCell id="11" value="- id = int" style="text;html=1;strokeColor=none;fillColor=none;align=center;verticalAlign=middle;whiteSpace=wrap;rounded=0;" parent="1" vertex="1">
                    <mxGeometry x="40" y="90" width="160" height="30" as="geometry"/>
                </mxCell>
                <mxCell id="12" value="- nome = string" style="text;html=1;strokeColor=none;fillColor=none;align=center;verticalAlign=middle;whiteSpace=wrap;rounded=0;" parent="1" vertex="1">
                    <mxGeometry x="47.5" y="100" width="185" height="45" as="geometry"/>
                </mxCell>
                <mxCell id="13" value="- titulares = int" style="text;html=1;strokeColor=none;fillColor=none;align=center;verticalAlign=middle;whiteSpace=wrap;rounded=0;" parent="1" vertex="1">
                    <mxGeometry x="75" y="130" width="130" height="30" as="geometry"/>
                </mxCell>
                <mxCell id="14" value="- reservas = int" style="text;html=1;strokeColor=none;fillColor=none;align=center;verticalAlign=middle;whiteSpace=wrap;rounded=0;" parent="1" vertex="1">
                    <mxGeometry x="80" y="145" width="120" height="30" as="geometry"/>
                </mxCell>
                <mxCell id="16" value="-totaldejogadores = int" style="text;html=1;strokeColor=none;fillColor=none;align=center;verticalAlign=middle;whiteSpace=wrap;rounded=0;" parent="1" vertex="1">
                    <mxGeometry x="80" y="160" width="160" height="30" as="geometry"/>
                </mxCell>
                <mxCell id="17" value="+ gerarId = int" style="text;html=1;strokeColor=none;fillColor=none;align=center;verticalAlign=middle;whiteSpace=wrap;rounded=0;" parent="1" vertex="1">
                    <mxGeometry x="60" y="190" width="150" height="30" as="geometry"/>
                </mxCell>
                <mxCell id="18" value="+ calcularReservas() = int" style="text;html=1;strokeColor=none;fillColor=none;align=center;verticalAlign=middle;whiteSpace=wrap;rounded=0;" parent="1" vertex="1">
                    <mxGeometry x="80" y="210" width="170" height="30" as="geometry"/>
                </mxCell>
                <mxCell id="19" value="+ calcularTotalJogadores() = int" style="text;html=1;strokeColor=none;fillColor=none;align=center;verticalAlign=middle;whiteSpace=wrap;rounded=0;" parent="1" vertex="1">
                    <mxGeometry x="80" y="230" width="200" height="30" as="geometry"/>
                </mxCell>
                <mxCell id="21" value="- equipes[] = list" style="text;html=1;strokeColor=none;fillColor=none;align=center;verticalAlign=middle;whiteSpace=wrap;rounded=0;" parent="1" vertex="1">
                    <mxGeometry x="400" y="90" width="150" height="30" as="geometry"/>
                </mxCell>
                <mxCell id="22" value="+ adicionarEquipe(parametro) = boolean&amp;nbsp;" style="text;html=1;strokeColor=none;fillColor=none;align=center;verticalAlign=middle;whiteSpace=wrap;rounded=0;" parent="1" vertex="1">
                    <mxGeometry x="414" y="140" width="240" height="30" as="geometry"/>
                </mxCell>
                <mxCell id="23" value="+ listarEquipes() = list&amp;nbsp;" style="text;html=1;strokeColor=none;fillColor=none;align=center;verticalAlign=middle;whiteSpace=wrap;rounded=0;" parent="1" vertex="1">
                    <mxGeometry x="380" y="160" width="210" height="30" as="geometry"/>
                </mxCell>
                <mxCell id="24" value="+ listarEquipesPorId(parametro) = list&amp;nbsp;" style="text;html=1;strokeColor=none;fillColor=none;align=center;verticalAlign=middle;whiteSpace=wrap;rounded=0;" parent="1" vertex="1">
                    <mxGeometry x="400" y="180" width="250" height="30" as="geometry"/>
                </mxCell>
                <mxCell id="25" value="+ deletarEquipe() = void;&amp;nbsp;" style="text;html=1;strokeColor=none;fillColor=none;align=center;verticalAlign=middle;whiteSpace=wrap;rounded=0;" vertex="1" parent="1">
                    <mxGeometry x="390" y="200" width="200" height="30" as="geometry"/>
                </mxCell>
            </root>
        </mxGraphModel>
    </diagram>
</mxfile>